<?xml version="1.0" encoding="iso-8859-1"?>
<!-- Generator: Adobe Illustrator 16.0.0, SVG Export Plug-In . SVG Version: 6.00 Build 0)  -->
<!DOCTYPE svg PUBLIC "-//W3C//DTD SVG 1.1//EN" "http://www.w3.org/Graphics/SVG/1.1/DTD/svg11.dtd">
<svg xmlns="http://www.w3.org/2000/svg" xmlns:xlink="http://www.w3.org/1999/xlink" version="1.1" id="Capa_1" x="0px" y="0px" width="512px" height="512px" viewBox="0 0 481.083 481.083" style="enable-background:new 0 0 481.083 481.083;" xml:space="preserve">
<g>
	<g>
		<path d="M466.474,314.693c-7.675-3.647-21.885-6.894-46.002-1.642c-1.667,0.306-112.113,19.947-132.733,23.652    c-3.178,0.57-5.119,4.43-5.119,4.43c-40.774,62.781-105.437,17.883-105.142,16.967c36.45,10.105,67.417-3.995,79.028-17.938    c27.118-32.562-15.759-37.398-38.477-42.924c-85.094-20.693-88.682,0.514-137.964,5.199L4.522,313.136    c-1.712,0.519-3.128,1.734-3.899,3.349c-0.772,1.614-0.83,3.479-0.16,5.138l3.051,7.545c7.604,18.809,15.251,46.834,23.292,65.875    c0.517,1.227,1.407,2.262,2.544,2.957c0.252,0.154,0.589,0.344,1.011,0.545c1.508,0.717,3.208,1.143,4.595,1.141l53.686-1.061    c2.814-0.018,122.088,69.213,179.354,46.277l178.373-79.97c7.098-3.359,14.436-6.832,21.741-10.207    c7.973-3.683,12.927-12.146,12.972-20.372C481.129,325.753,475.685,319.07,466.474,314.693z" fill="#32362f"/>
		<path d="M96.832,111.858h5.355v128.519c0,9.859,7.993,17.852,17.853,17.852h241.001c9.859,0,17.852-7.993,17.852-17.852V111.858    h5.356c4.931,0,8.927-3.997,8.927-8.926V40.451c0-4.93-3.996-8.926-8.927-8.926H96.832c-4.93,0-8.926,3.996-8.926,8.926v62.482    C87.906,107.861,91.901,111.858,96.832,111.858z M220.457,57.521h40.167c7.888,0,14.282,6.395,14.282,14.282    c0,7.888-6.396,14.281-14.282,14.281h-40.167c-7.887,0-14.281-6.394-14.281-14.281C206.175,63.916,212.569,57.521,220.457,57.521z    " fill="#32362f"/>
	</g>
</g>
<g>
</g>
<g>
</g>
<g>
</g>
<g>
</g>
<g>
</g>
<g>
</g>
<g>
</g>
<g>
</g>
<g>
</g>
<g>
</g>
<g>
</g>
<g>
</g>
<g>
</g>
<g>
</g>
<g>
</g>
</svg>
